<svg width="8" height="8" viewBox="0 0 8 8" fill="none" xmlns="http://www.w3.org/2000/svg">
<path d="M1.33307 7.33252C1.42277 7.33599 1.51225 7.32132 1.59614 7.2894C1.68004 7.25747 1.75662 7.20893 1.82132 7.1467C1.88601 7.08447 1.93747 7.00981 1.97262 6.92722C2.00778 6.84462 2.02589 6.75578 2.02589 6.66602C2.02589 6.57625 2.00778 6.48741 1.97262 6.40481C1.93747 6.32222 1.88601 6.24757 1.82132 6.18533C1.75662 6.1231 1.68004 6.07457 1.59614 6.04264C1.51225 6.01071 1.42277 5.99604 1.33307 5.99952C1.16077 6.00619 0.997754 6.07933 0.878211 6.2036C0.758669 6.32786 0.691895 6.49359 0.691895 6.66602C0.691895 6.83844 0.758669 7.00417 0.878211 7.12844C0.997754 7.2527 1.16077 7.32584 1.33307 7.33252ZM4.00007 7.33252C4.08977 7.33599 4.17925 7.32132 4.26314 7.2894C4.34704 7.25747 4.42362 7.20893 4.48832 7.1467C4.55301 7.08447 4.60447 7.00981 4.63962 6.92722C4.67478 6.84462 4.69289 6.75578 4.69289 6.66602C4.69289 6.57625 4.67478 6.48741 4.63962 6.40481C4.60447 6.32222 4.55301 6.24757 4.48832 6.18533C4.42362 6.1231 4.34704 6.07457 4.26314 6.04264C4.17925 6.01071 4.08977 5.99604 4.00007 5.99952C3.82777 6.00619 3.66475 6.07933 3.54521 6.2036C3.42567 6.32786 3.35889 6.49359 3.35889 6.66602C3.35889 6.83844 3.42567 7.00417 3.54521 7.12844C3.66475 7.2527 3.82777 7.32584 4.00007 7.33252ZM4.00007 4.66552C4.08977 4.66899 4.17925 4.65432 4.26314 4.6224C4.34704 4.59047 4.42362 4.54193 4.48832 4.4797C4.55301 4.41747 4.60447 4.34281 4.63962 4.26022C4.67478 4.17762 4.69289 4.08878 4.69289 3.99902C4.69289 3.90925 4.67478 3.82041 4.63962 3.73781C4.60447 3.65522 4.55301 3.58057 4.48832 3.51833C4.42362 3.4561 4.34704 3.40756 4.26314 3.37564C4.17925 3.34371 4.08977 3.32904 4.00007 3.33252C3.82777 3.33919 3.66475 3.41233 3.54521 3.5366C3.42567 3.66086 3.35889 3.82659 3.35889 3.99902C3.35889 4.17144 3.42567 4.33717 3.54521 4.46144C3.66475 4.5857 3.82777 4.65884 4.00007 4.66552ZM6.66707 1.99952C6.75677 2.00299 6.84625 1.98832 6.93014 1.9564C7.01404 1.92447 7.09062 1.87593 7.15531 1.8137C7.22001 1.75147 7.27147 1.67682 7.30662 1.59422C7.34177 1.51162 7.35989 1.42278 7.35989 1.33302C7.35989 1.24325 7.34177 1.15441 7.30662 1.07181C7.27147 0.989216 7.22001 0.914566 7.15531 0.852333C7.09062 0.7901 7.01404 0.741565 6.93014 0.709636C6.84625 0.677707 6.75677 0.663041 6.66707 0.666516C6.49477 0.673191 6.33175 0.746332 6.21221 0.870595C6.09267 0.994858 6.02589 1.16059 6.02589 1.33302C6.02589 1.50544 6.09267 1.67117 6.21221 1.79544C6.33175 1.9197 6.49477 1.99284 6.66707 1.99952ZM6.66707 7.33252C6.75677 7.33599 6.84625 7.32132 6.93014 7.2894C7.01404 7.25747 7.09062 7.20893 7.15531 7.1467C7.22001 7.08447 7.27147 7.00981 7.30662 6.92722C7.34177 6.84462 7.35989 6.75578 7.35989 6.66602C7.35989 6.57625 7.34177 6.48741 7.30662 6.40481C7.27147 6.32222 7.22001 6.24757 7.15531 6.18533C7.09062 6.1231 7.01404 6.07457 6.93014 6.04264C6.84625 6.01071 6.75677 5.99604 6.66707 5.99952C6.49477 6.00619 6.33175 6.07933 6.21221 6.2036C6.09267 6.32786 6.02589 6.49359 6.02589 6.66602C6.02589 6.83844 6.09267 7.00417 6.21221 7.12844C6.33175 7.2527 6.49477 7.32584 6.66707 7.33252ZM6.66707 4.66552C6.75677 4.66899 6.84625 4.65432 6.93014 4.6224C7.01404 4.59047 7.09062 4.54193 7.15531 4.4797C7.22001 4.41747 7.27147 4.34281 7.30662 4.26022C7.34177 4.17762 7.35989 4.08878 7.35989 3.99902C7.35989 3.90925 7.34177 3.82041 7.30662 3.73781C7.27147 3.65522 7.22001 3.58057 7.15531 3.51833C7.09062 3.4561 7.01404 3.40756 6.93014 3.37564C6.84625 3.34371 6.75677 3.32904 6.66707 3.33252C6.49477 3.33919 6.33175 3.41233 6.21221 3.5366C6.09267 3.66086 6.02589 3.82659 6.02589 3.99902C6.02589 4.17144 6.09267 4.33717 6.21221 4.46144C6.33175 4.5857 6.49477 4.65884 6.66707 4.66552Z" fill="white"/>
</svg>
